<svg version="1.1" id="Layer_1" xmlns="http://www.w3.org/2000/svg" xmlns:xlink="http://www.w3.org/1999/xlink" x="0px" y="0px"
	 width="100%" viewBox="0 0 277 371" enable-background="new 0 0 277 371" xml:space="preserve">
<path fill="#000000" opacity="1.000000" stroke="none" 
	d="
M1.000000,141.000000 
	C1.000000,94.017937 1.000000,47.535877 1.000000,1.026907 
	C93.279770,1.026907 185.559540,1.026907 277.919678,1.026907 
	C277.919678,124.565361 277.919678,248.130798 277.919678,371.848114 
	C185.666840,371.848114 93.333458,371.848114 1.000000,371.848114 
	C1.000000,295.107208 1.000000,218.303604 1.000000,141.000000 
M184.869415,49.519848 
	C184.323730,49.086292 183.778061,48.652737 182.559204,47.962372 
	C177.840958,44.606155 173.325058,40.909023 168.362915,37.963737 
	C157.581131,31.564222 145.911057,27.510088 132.930267,25.377176 
	C132.105392,25.269611 131.280518,25.162045 130.439224,25.108528 
	C130.439224,25.108528 130.493881,25.122784 129.903488,24.390915 
	C120.217377,24.257652 110.531403,24.104607 100.844833,24.034523 
	C100.181450,24.029726 99.513580,24.645988 97.941704,24.967913 
	C88.626129,25.368971 79.310562,25.770031 69.068932,26.022108 
	C64.287689,26.002874 59.502522,25.860798 54.726746,26.013105 
	C52.101246,26.096840 49.491547,26.676170 45.960884,27.033112 
	C42.489475,27.036413 39.005013,26.870113 35.553780,27.135637 
	C34.356834,27.227728 32.348583,28.263796 32.232246,29.084385 
	C31.346355,35.333248 30.837357,41.635544 29.874983,48.699108 
	C29.239162,52.331326 28.485121,55.947979 28.004389,59.600609 
	C27.609564,62.600479 29.483299,63.084930 32.039627,62.987343 
	C43.695820,62.542366 55.356514,62.215218 67.942337,61.944798 
	C73.974823,61.572197 80.007301,61.199596 86.964127,60.956806 
	C103.571335,61.552830 120.178543,62.148853 137.548477,62.962833 
	C142.412048,65.044685 147.275604,67.126534 152.090164,69.895424 
	C153.711258,70.967003 155.332352,72.038582 156.966690,73.044029 
	C156.966690,73.044029 156.900589,73.057411 157.131714,73.697227 
	C160.735901,76.827461 164.340103,79.957695 167.957062,83.015686 
	C167.957062,83.015686 167.884659,83.003868 168.082886,83.533951 
	C168.399323,83.718201 168.715775,83.902451 169.002167,83.948997 
	C169.002167,83.948997 168.864273,83.978127 168.701385,84.797272 
	C163.357498,85.205589 158.018829,85.848320 152.668503,85.967461 
	C144.579651,86.147568 136.482300,85.914650 128.389481,85.976318 
	C126.888161,85.987755 125.391136,86.561333 122.986954,86.952461 
	C118.998421,87.420609 115.009888,87.888756 110.185287,88.210968 
	C99.111275,88.187737 88.037254,88.164505 76.032150,88.055809 
	C70.617355,88.031677 65.199883,87.895752 59.788746,88.024872 
	C56.484612,88.103722 53.190205,88.590187 49.053726,88.931381 
	C45.384903,88.578384 42.122993,88.699364 43.042702,94.779739 
	C41.341419,108.029427 39.506573,121.263725 37.976742,134.533173 
	C36.472729,147.578720 35.270477,160.659149 33.951591,173.725861 
	C33.355110,179.635422 33.645653,180.124481 39.725910,179.995071 
	C48.316185,179.812210 56.914021,179.485413 65.473198,178.786407 
	C67.072136,178.655838 69.533401,176.692749 69.830887,175.218918 
	C70.960968,169.620117 71.437286,163.882385 72.027428,158.183075 
	C73.075241,148.063675 73.981689,137.929520 75.051689,127.812592 
	C75.329643,125.184517 76.790535,123.848770 79.727882,123.898796 
	C85.868736,124.003403 92.015022,123.789932 99.080940,123.696114 
	C107.724411,123.746094 116.367882,123.796074 125.862877,123.983818 
	C130.429657,123.669785 134.993164,123.292091 139.563980,123.056206 
	C146.954880,122.674789 154.353134,122.093544 161.743408,122.157753 
	C167.041229,122.203758 172.331100,123.166061 178.251785,123.980469 
	C179.092545,124.279716 179.933319,124.578957 181.440842,125.025703 
	C182.228287,125.279015 183.015747,125.532326 183.964722,126.721184 
	C184.332397,135.360046 182.992477,143.744995 179.923950,151.809158 
	C178.188461,156.370010 176.119705,160.804062 173.774994,165.780380 
	C173.477722,166.547333 173.180450,167.314285 172.271088,168.373398 
	C171.143784,169.562042 170.016464,170.750671 168.957260,171.967621 
	C168.957260,171.967621 168.931091,171.898651 168.299423,172.132385 
	C165.168365,175.411469 162.037323,178.690552 158.979370,181.972458 
	C158.979370,181.972458 158.981491,181.899338 158.303192,181.984482 
	C157.274826,183.018829 156.246460,184.053177 154.808334,185.676590 
	C150.178528,187.976501 145.650558,190.521805 140.886841,192.499069 
	C137.040161,194.095703 132.909164,195.007339 127.985939,196.114029 
	C117.657967,196.128342 107.329987,196.142670 96.480270,196.111023 
	C96.293831,196.393692 96.107391,196.676361 95.998390,197.009186 
	C95.998390,197.009186 96.048721,196.931854 95.105423,197.019409 
	C83.299644,197.396255 71.493866,197.773102 59.532890,198.012695 
	C59.532890,198.012695 59.364014,198.132736 58.860985,197.345825 
	C51.937725,197.216034 45.014935,197.027176 38.091080,196.972076 
	C30.242546,196.909592 29.586872,197.672653 30.037287,206.409470 
	C29.960106,208.393616 30.024796,210.395248 29.782679,212.359070 
	C28.229572,224.956223 26.529394,237.535660 25.041464,250.140259 
	C24.178658,257.449310 23.760014,264.810852 22.893044,272.119293 
	C21.723988,281.974274 20.302471,291.799164 19.014503,301.640259 
	C18.063606,308.905914 17.029085,316.163696 16.258152,323.448975 
	C15.433877,331.238403 14.875094,339.055939 13.897581,347.649658 
	C13.059192,350.296692 11.200364,353.088318 14.985973,355.030640 
	C14.985973,355.030640 14.923006,355.016113 15.331391,355.800659 
	C25.462204,355.866821 35.593029,355.957886 45.723808,355.953857 
	C46.571968,355.953522 47.419868,355.313171 48.897400,354.674744 
	C49.218655,353.119690 49.539913,351.564636 50.012123,349.148560 
	C50.611271,342.036377 51.210419,334.924225 51.962006,326.976166 
	C52.643566,321.996887 53.436199,317.029816 53.983189,312.035797 
	C55.065262,302.156525 55.845222,292.241974 57.052544,282.379059 
	C58.906666,267.232361 61.177998,252.135239 62.894089,236.974258 
	C63.284676,233.523560 64.596649,232.866699 67.550354,232.930847 
	C72.021889,233.027908 76.499466,232.847046 81.912926,232.905045 
	C96.310059,232.584091 110.707520,232.276123 125.103271,231.902252 
	C125.793343,231.884308 126.468300,231.284805 128.024368,230.968765 
	C133.315048,230.183426 138.720093,229.847336 143.876556,228.534744 
	C165.758652,222.964615 183.360275,210.434509 197.771606,193.496582 
	C202.702148,187.701599 205.996323,180.514359 210.518173,173.795395 
	C210.610413,173.485062 210.702652,173.174728 210.980957,172.637405 
	C210.980957,172.637405 210.872528,172.364655 211.544800,171.961899 
	C213.972397,166.312134 216.399994,160.662369 218.825821,155.141006 
	C218.825821,155.141006 218.954041,155.147583 219.121826,155.614090 
	C219.331665,155.905319 219.616028,156.055557 219.975449,156.816086 
	C222.658478,163.267105 225.341522,169.718140 227.935837,177.010880 
	C228.271545,179.105530 228.809326,181.190491 228.910263,183.296402 
	C229.582596,197.322937 227.708298,210.942673 220.637589,223.271957 
	C214.228592,234.447464 205.388489,243.355881 194.086594,249.885605 
	C180.332397,257.832153 165.156464,258.167297 149.514481,258.554535 
	C149.062103,258.748047 148.614075,259.099487 148.156693,259.112122 
	C134.160446,259.498871 120.163269,259.852356 105.246498,260.073395 
	C101.701942,260.073395 98.157379,260.073395 94.612823,260.073395 
	C94.398621,260.576416 94.184410,261.079437 93.970207,261.582428 
	C99.361122,268.319641 104.844498,274.985260 110.125870,281.807220 
	C126.972977,303.568848 143.756393,325.379791 160.538803,347.191406 
	C165.256149,353.322449 169.885513,359.520966 179.821716,356.773743 
	C180.270020,356.769012 180.718338,356.764252 182.068085,356.935059 
	C186.562729,356.959564 191.061142,357.107574 195.550888,356.970978 
	C199.403809,356.853790 203.246811,356.411072 207.909637,356.055084 
	C209.268814,355.950806 210.627991,355.846527 212.581818,355.696594 
	C211.437317,353.917419 210.678284,352.737457 209.638458,350.998657 
	C208.588715,349.932281 207.425812,348.954865 206.506500,347.785919 
	C195.759903,334.121368 185.029404,320.444061 174.342926,306.732483 
	C171.191010,302.688293 168.190781,298.525848 164.521454,293.615173 
	C167.048569,293.286285 168.300293,292.964111 169.546051,292.985626 
	C183.734680,293.230804 196.838959,288.714630 209.045639,282.352905 
	C224.901978,274.089111 237.886017,262.063721 247.993637,247.219238 
	C256.306274,235.010941 262.321503,221.567566 263.731812,206.884766 
	C264.890900,194.817184 265.113190,182.386490 263.544220,170.405701 
	C261.928284,158.066360 256.957001,146.352264 250.014740,135.739822 
	C242.160645,123.733475 232.569870,113.388329 220.854858,104.381584 
	C219.915833,102.402069 219.071899,100.370285 218.018356,98.453728 
	C215.690201,94.218491 216.475739,88.253624 210.880768,85.997849 
	C210.880768,85.997849 211.110809,86.117813 211.541580,85.365402 
	C210.356964,83.218132 209.172348,81.070862 207.975662,78.379341 
	C207.905762,78.211884 207.835876,78.044418 207.603943,77.281082 
	C206.755112,76.206680 205.906281,75.132286 204.971848,73.447868 
	C204.898300,73.256157 204.824753,73.064445 204.859039,72.241585 
	C204.254623,71.464035 203.650208,70.686485 203.039169,69.981339 
	C203.039169,69.981339 203.111649,69.987053 203.011414,69.241600 
	C198.630844,63.595356 194.294373,57.913448 189.800690,52.358707 
	C189.357437,51.810783 187.951416,52.041714 186.945007,52.027718 
	C186.945007,52.027718 187.061096,52.076187 186.806595,51.513073 
	C186.191299,50.981739 185.576019,50.450409 184.970367,50.030369 
	C184.970367,50.030369 185.081726,50.021664 184.869415,49.519848 
z"/>
<path fill="#2CABE1" opacity="1.000000" stroke="none" 
	d="
M133.389786,26.103502 
	C145.911057,27.510088 157.581131,31.564222 168.362915,37.963737 
	C173.325058,40.909023 177.840958,44.606155 183.015106,48.325294 
	C184.007919,49.132698 184.544815,49.577183 185.081726,50.021664 
	C185.081726,50.021664 184.970367,50.030369 185.177261,50.188728 
	C185.943130,50.923450 186.502121,51.499817 187.061096,52.076187 
	C187.061096,52.076187 186.945007,52.027718 187.013733,52.306786 
	C189.483337,55.103844 191.922256,57.586876 194.275482,60.148636 
	C197.257294,63.394650 200.169464,66.704643 203.111649,69.987053 
	C203.111649,69.987053 203.039169,69.981339 202.948990,70.247818 
	C203.489609,71.300453 204.120407,72.086594 204.751205,72.872734 
	C204.824753,73.064445 204.898300,73.256157 205.182037,74.003761 
	C206.183487,75.665421 206.974747,76.771187 207.765991,77.876961 
	C207.835876,78.044418 207.905762,78.211884 208.093964,78.996719 
	C209.178452,81.782013 210.144623,83.949913 211.110809,86.117813 
	C211.110809,86.117813 210.880768,85.997849 211.151184,86.203125 
	C213.570969,92.403610 215.720337,98.398811 217.930054,104.847969 
	C218.707489,114.715988 219.830994,124.122948 219.995743,133.546661 
	C220.101822,139.615402 218.799789,145.708771 217.931641,152.108093 
	C215.447113,159.071625 213.159821,165.718140 210.872528,172.364655 
	C210.872528,172.364655 210.980957,172.637405 210.819702,172.883179 
	C210.451691,173.407043 210.244919,173.685135 210.038147,173.963226 
	C205.996323,180.514359 202.702148,187.701599 197.771606,193.496582 
	C183.360275,210.434509 165.758652,222.964615 143.876556,228.534744 
	C138.720093,229.847336 133.315048,230.183426 127.231842,230.750732 
	C112.091797,230.778900 97.743736,231.000992 83.398247,231.334137 
	C82.579536,231.353134 81.781914,232.279953 80.974472,232.784271 
	C76.499466,232.847046 72.021889,233.027908 67.550354,232.930847 
	C64.596649,232.866699 63.284676,233.523560 62.894089,236.974258 
	C61.177998,252.135239 58.906666,267.232361 57.052544,282.379059 
	C55.845222,292.241974 55.065262,302.156525 53.983189,312.035797 
	C53.436199,317.029816 52.643566,321.996887 51.598015,327.657227 
	C50.286282,335.601074 49.338531,342.863800 48.258583,350.382263 
	C47.636528,351.942200 47.146667,353.246399 46.210381,354.555603 
	C35.483635,354.712433 25.203321,354.864258 14.923006,355.016113 
	C14.923006,355.016113 14.985973,355.030640 15.022127,354.632080 
	C14.772328,351.776062 14.486377,349.318634 14.200424,346.861206 
	C14.875094,339.055939 15.433877,331.238403 16.258152,323.448975 
	C17.029085,316.163696 18.063606,308.905914 19.014503,301.640259 
	C20.302471,291.799164 21.723988,281.974274 22.893044,272.119293 
	C23.760014,264.810852 24.178658,257.449310 25.041464,250.140259 
	C26.529394,237.535660 28.229572,224.956223 29.782679,212.359070 
	C30.024796,210.395248 29.960106,208.393616 30.390972,205.783432 
	C31.298782,199.603531 34.880623,198.824341 39.665672,198.892807 
	C46.226822,198.986664 52.797447,198.417664 59.364014,198.132736 
	C59.364014,198.132736 59.532890,198.012695 60.008736,198.268158 
	C71.753166,198.284866 83.022072,198.058807 94.289429,197.771683 
	C94.882607,197.756561 95.462593,197.223694 96.048721,196.931854 
	C96.048721,196.931854 95.998390,197.009186 96.196548,197.065445 
	C96.558578,197.153854 96.722450,197.185989 97.358482,197.287506 
	C108.188538,196.978882 118.546425,196.600861 128.904312,196.222839 
	C132.909164,195.007339 137.040161,194.095703 140.886841,192.499069 
	C145.650558,190.521805 150.178528,187.976501 155.344025,185.311050 
	C156.913635,183.930130 157.947571,182.914734 158.981491,181.899338 
	C158.981491,181.899338 158.979370,181.972458 159.300323,182.022873 
	C162.724548,178.681747 165.827820,175.290207 168.931091,171.898651 
	C168.931091,171.898651 168.957260,171.967621 169.252716,172.056549 
	C170.659821,170.790726 171.771500,169.435974 172.883179,168.081223 
	C173.180450,167.314285 173.477722,166.547333 174.306915,165.409393 
	C180.645813,157.748795 183.567902,149.194305 184.878464,140.181824 
	C185.595612,135.250000 185.021317,130.130356 185.118652,124.726707 
	C184.789429,120.124084 184.936478,115.736595 183.836853,111.687675 
	C181.418564,102.783333 178.382812,94.043762 171.680008,86.935822 
	C170.776993,85.745461 169.820633,84.861794 168.864273,83.978127 
	C168.864273,83.978127 169.002167,83.948997 168.898499,83.759354 
	C168.491425,83.381096 168.188049,83.192482 167.884659,83.003868 
	C167.884659,83.003868 167.957062,83.015686 168.091476,82.707733 
	C164.450790,79.285667 160.675690,76.171539 156.900589,73.057411 
	C156.900589,73.057411 156.966690,73.044029 157.025223,72.737808 
	C155.435562,71.357178 153.787369,70.282784 152.139175,69.208382 
	C147.275604,67.126534 142.412048,65.044685 136.953751,62.619049 
	C133.895569,61.529613 131.432114,60.783958 128.789917,59.889580 
	C128.015976,59.774582 127.420761,59.808311 126.430099,59.763199 
	C116.751099,59.735596 107.467552,59.786835 97.925941,59.711723 
	C96.758072,59.709862 95.848267,59.834347 94.495331,59.941616 
	C91.394203,59.982883 88.736214,60.041370 85.608139,60.025299 
	C79.089249,60.182030 73.040436,60.413319 66.524498,60.606258 
	C55.794239,60.732716 45.524620,60.732758 35.270866,61.136040 
	C30.569189,61.320957 29.536245,59.435375 30.258062,55.205093 
	C30.660185,52.848419 30.253302,50.353706 30.211002,47.921200 
	C30.837357,41.635544 31.346355,35.333248 32.232246,29.084385 
	C32.348583,28.263796 34.356834,27.227728 35.553780,27.135637 
	C39.005013,26.870113 42.489475,27.036413 46.819813,27.146727 
	C55.115612,27.149101 62.552479,27.037863 70.456497,26.976101 
	C75.385048,26.980644 79.851448,27.052505 84.306625,26.861938 
	C90.202263,26.609756 96.089119,26.152216 102.398491,25.789387 
	C112.042786,25.571486 121.268333,25.347136 130.493881,25.122784 
	C130.493881,25.122784 130.439224,25.108528 130.527344,25.378998 
	C131.540253,25.800814 132.465012,25.952158 133.389786,26.103502 
z"/>
<path fill="#085680" opacity="1.000000" stroke="none" 
	d="
M218.128860,151.791092 
	C218.799789,145.708771 220.101822,139.615402 219.995743,133.546661 
	C219.830994,124.122948 218.707489,114.715988 218.289825,104.970947 
	C219.321350,104.805641 220.053467,104.971321 220.785583,105.136993 
	C232.569870,113.388329 242.160645,123.733475 250.014740,135.739822 
	C256.957001,146.352264 261.928284,158.066360 263.544220,170.405701 
	C265.113190,182.386490 264.890900,194.817184 263.731812,206.884766 
	C262.321503,221.567566 256.306274,235.010941 247.993637,247.219238 
	C237.886017,262.063721 224.901978,274.089111 209.045639,282.352905 
	C196.838959,288.714630 183.734680,293.230804 169.546051,292.985626 
	C168.300293,292.964111 167.048569,293.286285 164.521454,293.615173 
	C168.190781,298.525848 171.191010,302.688293 174.342926,306.732483 
	C185.029404,320.444061 195.759903,334.121368 206.506500,347.785919 
	C207.425812,348.954865 208.588715,349.932281 209.742981,351.675537 
	C208.846085,353.304352 207.844650,354.256287 206.392242,355.200745 
	C197.643753,355.561615 189.346222,355.929993 180.915985,356.144928 
	C180.238785,356.251495 179.694290,356.511505 179.149780,356.771484 
	C169.885513,359.520966 165.256149,353.322449 160.538803,347.191406 
	C143.756393,325.379791 126.972977,303.568848 110.125870,281.807220 
	C104.844498,274.985260 99.361122,268.319641 93.970207,261.582428 
	C94.184410,261.079437 94.398621,260.576416 94.612823,260.073395 
	C98.157379,260.073395 101.701942,260.073395 106.043663,260.303253 
	C113.962715,260.376617 121.087372,260.297455 128.205704,260.042053 
	C135.477631,259.781189 142.743362,259.347290 150.011795,258.989136 
	C165.156464,258.167297 180.332397,257.832153 194.086594,249.885605 
	C205.388489,243.355881 214.228592,234.447464 220.637589,223.271957 
	C227.708298,210.942673 229.582596,197.322937 228.910263,183.296402 
	C228.809326,181.190491 228.271545,179.105530 228.122955,176.283478 
	C225.563492,168.511292 222.816925,161.466537 219.619751,154.339386 
	C219.097427,154.553879 219.025742,154.850739 218.954041,155.147583 
	C218.954041,155.147583 218.825821,155.141006 219.305618,155.036560 
	C219.233231,153.885117 218.681046,152.838104 218.128860,151.791092 
z"/>
<path fill="#075580" opacity="1.000000" stroke="none" 
	d="
M171.626663,87.242508 
	C178.382812,94.043762 181.418564,102.783333 183.836853,111.687675 
	C184.936478,115.736595 184.789429,120.124084 184.833954,124.785919 
	C184.272690,125.264458 184.085342,125.315086 183.772079,125.060349 
	C182.688797,124.796043 181.731445,124.837128 180.774078,124.878204 
	C179.933319,124.578957 179.092545,124.279716 177.712616,123.619919 
	C175.649765,122.738823 174.125793,121.766411 172.602463,121.767372 
	C156.736557,121.777390 140.870758,121.943810 124.540337,121.998260 
	C122.103371,121.965439 120.123566,121.904320 118.159950,122.054619 
	C111.489906,122.565178 104.825584,123.150406 98.159073,123.707108 
	C92.015022,123.789932 85.868736,124.003403 79.727882,123.898796 
	C76.790535,123.848770 75.329643,125.184517 75.051689,127.812592 
	C73.981689,137.929520 73.075241,148.063675 72.027428,158.183075 
	C71.437286,163.882385 70.960968,169.620117 69.830887,175.218918 
	C69.533401,176.692749 67.072136,178.655838 65.473198,178.786407 
	C56.914021,179.485413 48.316185,179.812210 39.725910,179.995071 
	C33.645653,180.124481 33.355110,179.635422 33.951591,173.725861 
	C35.270477,160.659149 36.472729,147.578720 37.976742,134.533173 
	C39.506573,121.263725 41.341419,108.029427 43.401276,94.146927 
	C45.882988,92.283379 48.006123,91.052635 50.562088,89.827385 
	C59.673481,89.575439 68.352043,89.317986 77.482025,89.191643 
	C88.954918,88.972603 99.976395,88.622452 111.439636,88.316315 
	C115.946518,88.184448 120.011627,88.008575 124.516983,87.870384 
	C140.513702,87.686218 156.070190,87.464363 171.626663,87.242508 
z"/>
<path fill="#9CC0D0" opacity="1.000000" stroke="none" 
	d="
M125.004913,122.066856 
	C140.870758,121.943810 156.736557,121.777390 172.602463,121.767372 
	C174.125793,121.766411 175.649765,122.738823 177.398972,123.489471 
	C172.331100,123.166061 167.041229,122.203758 161.743408,122.157753 
	C154.353134,122.093544 146.954880,122.674789 139.563980,123.056206 
	C134.993164,123.292091 130.429657,123.669785 125.432976,123.618416 
	C125.003693,122.857628 125.004303,122.462242 125.004913,122.066856 
z"/>
<path fill="#BEEDF9" opacity="1.000000" stroke="none" 
	d="
M183.897995,125.365723 
	C184.085342,125.315086 184.272690,125.264458 184.744720,125.154617 
	C185.021317,130.130356 185.595612,135.250000 184.878464,140.181824 
	C183.567902,149.194305 180.645813,157.748795 174.519958,165.166809 
	C176.119705,160.804062 178.188461,156.370010 179.923950,151.809158 
	C182.992477,143.744995 184.332397,135.360046 184.016541,126.172729 
	C184.068375,125.624283 183.897995,125.365723 183.897995,125.365723 
z"/>
<path fill="#95D2E9" opacity="1.000000" stroke="none" 
	d="
M30.042994,48.310154 
	C30.253302,50.353706 30.660185,52.848419 30.258062,55.205093 
	C29.536245,59.435375 30.569189,61.320957 35.270866,61.136040 
	C45.524620,60.732758 55.794239,60.732716 66.526848,60.907341 
	C67.002747,61.446423 67.009171,61.646069 67.015587,61.845711 
	C55.356514,62.215218 43.695820,62.542366 32.039627,62.987343 
	C29.483299,63.084930 27.609564,62.600479 28.004389,59.600609 
	C28.485121,55.947979 29.239162,52.331326 30.042994,48.310154 
z"/>
<path fill="#82C9E4" opacity="1.000000" stroke="none" 
	d="
M81.443703,232.844666 
	C81.781914,232.279953 82.579536,231.353134 83.398247,231.334137 
	C97.743736,231.000992 112.091797,230.778900 126.794800,230.744415 
	C126.468300,231.284805 125.793343,231.884308 125.103271,231.902252 
	C110.707520,232.276123 96.310059,232.584091 81.443703,232.844666 
z"/>
<path fill="#B8D9E6" opacity="1.000000" stroke="none" 
	d="
M171.680008,86.935822 
	C156.070190,87.464363 140.513702,87.686218 124.503563,87.624756 
	C124.049896,87.341454 123.892128,86.875465 123.892128,86.875465 
	C125.391136,86.561333 126.888161,85.987755 128.389481,85.976318 
	C136.482300,85.914650 144.579651,86.147568 152.668503,85.967461 
	C158.018829,85.848320 163.357498,85.205589 168.782837,84.387695 
	C169.820633,84.861794 170.776993,85.745461 171.680008,86.935822 
z"/>
<path fill="#AFE6F7" opacity="1.000000" stroke="none" 
	d="
M86.078224,60.099854 
	C88.736214,60.041370 91.394203,59.982883 94.900803,59.991196 
	C96.560944,59.984684 97.372482,59.911381 98.184013,59.838074 
	C107.467552,59.786835 116.751099,59.735596 126.782654,59.843449 
	C128.009995,60.014465 128.489319,60.026386 128.968658,60.038307 
	C131.432114,60.783958 133.895569,61.529613 136.572388,62.510075 
	C120.178543,62.148853 103.571335,61.552830 86.513824,60.710243 
	C86.063515,60.463676 86.078224,60.099854 86.078224,60.099854 
z"/>
<path fill="#BAE9F6" opacity="1.000000" stroke="none" 
	d="
M59.112499,197.739288 
	C52.797447,198.417664 46.226822,198.986664 39.665672,198.892807 
	C34.880623,198.824341 31.298782,199.603531 30.492092,205.316513 
	C29.586872,197.672653 30.242546,196.909592 38.091080,196.972076 
	C45.014935,197.027176 51.937725,197.216034 59.112499,197.739288 
z"/>
<path fill="#8EB6CB" opacity="1.000000" stroke="none" 
	d="
M124.540329,121.998260 
	C125.004303,122.462242 125.003693,122.857628 125.007217,123.549530 
	C116.367882,123.796074 107.724411,123.746094 98.620010,123.701614 
	C104.825584,123.150406 111.489906,122.565178 118.159950,122.054619 
	C120.123566,121.904320 122.103371,121.965439 124.540329,121.998260 
z"/>
<path fill="#B6E7F6" opacity="1.000000" stroke="none" 
	d="
M203.061523,69.614326 
	C200.169464,66.704643 197.257294,63.394650 194.275482,60.148636 
	C191.922256,57.586876 189.483337,55.103844 187.037369,52.248493 
	C187.951416,52.041714 189.357437,51.810783 189.800690,52.358707 
	C194.294373,57.913448 198.630844,63.595356 203.061523,69.614326 
z"/>
<path fill="#729FB6" opacity="1.000000" stroke="none" 
	d="
M149.763138,258.771851 
	C142.743362,259.347290 135.477631,259.781189 128.205704,260.042053 
	C121.087372,260.297455 113.962715,260.376617 106.503532,260.372070 
	C120.163269,259.852356 134.160446,259.498871 148.156693,259.112122 
	C148.614075,259.099487 149.062103,258.748047 149.763138,258.771851 
z"/>
<path fill="#B9E9F8" opacity="1.000000" stroke="none" 
	d="
M220.820221,104.759293 
	C220.053467,104.971321 219.321350,104.805641 218.229462,104.516983 
	C215.720337,98.398811 213.570969,92.403610 211.210083,86.087555 
	C216.475739,88.253624 215.690201,94.218491 218.018356,98.453728 
	C219.071899,100.370285 219.915833,102.402069 220.820221,104.759293 
z"/>
<path fill="#92D4EC" opacity="1.000000" stroke="none" 
	d="
M101.979744,25.782936 
	C96.089119,26.152216 90.202263,26.609756 84.306625,26.861938 
	C79.851448,27.052505 75.385048,26.980644 70.457443,26.787300 
	C69.991241,26.549019 69.994987,26.171089 69.994987,26.171089 
	C79.310562,25.770031 88.626129,25.368971 98.718246,25.025507 
	C100.323112,25.316380 101.151428,25.549658 101.979744,25.782936 
z"/>
<path fill="#B1D3E2" opacity="1.000000" stroke="none" 
	d="
M220.070358,154.421768 
	C222.816925,161.466537 225.563492,168.511292 228.167297,175.862610 
	C225.341522,169.718140 222.658478,163.267105 219.986145,156.028961 
	C220.021362,154.968475 220.045868,154.695114 220.070358,154.421768 
z"/>
<path fill="#89CFE8" opacity="1.000000" stroke="none" 
	d="
M95.577072,196.975632 
	C95.462593,197.223694 94.882607,197.756561 94.289429,197.771683 
	C83.022072,198.058807 71.753166,198.284866 60.086334,198.336792 
	C71.493866,197.773102 83.299644,197.396255 95.577072,196.975632 
z"/>
<path fill="#B3E8FA" opacity="1.000000" stroke="none" 
	d="
M217.931641,152.108093 
	C218.681046,152.838104 219.233231,153.885117 219.306503,154.972382 
	C216.399994,160.662369 213.972397,166.312134 211.208664,172.163269 
	C213.159821,165.718140 215.447113,159.071625 217.931641,152.108093 
z"/>
<path fill="#CFEBF6" opacity="1.000000" stroke="none" 
	d="
M181.048706,356.298340 
	C189.346222,355.929993 197.643753,355.561615 206.401184,355.441711 
	C206.861115,355.690155 207.094208,356.112335 207.094208,356.112335 
	C203.246811,356.411072 199.403809,356.853790 195.550888,356.970978 
	C191.061142,357.107574 186.562729,356.959564 181.636078,356.719604 
	C181.204056,356.504120 181.048706,356.298370 181.048706,356.298340 
z"/>
<path fill="#86CEEA" opacity="1.000000" stroke="none" 
	d="
M85.608139,60.025299 
	C86.078224,60.099854 86.063515,60.463676 86.051651,60.645340 
	C80.007301,61.199596 73.974823,61.572197 67.478958,61.895256 
	C67.009171,61.646069 67.002747,61.446423 66.993973,60.945694 
	C73.040436,60.413319 79.089249,60.182030 85.608139,60.025299 
z"/>
<path fill="#86ADBF" opacity="1.000000" stroke="none" 
	d="
M110.997864,88.272308 
	C99.976395,88.622452 88.954918,88.972603 77.461838,88.962082 
	C76.990219,88.601410 76.963242,88.141266 76.963242,88.141266 
	C88.037254,88.164505 99.111275,88.187737 110.589584,88.265556 
	C110.993874,88.320145 110.997864,88.272308 110.997864,88.272308 
z"/>
<path fill="#AFE6F8" opacity="1.000000" stroke="none" 
	d="
M48.390785,350.126556 
	C49.338531,342.863800 50.286282,335.601074 51.521797,328.075195 
	C51.210419,334.924225 50.611271,342.036377 49.568443,349.600372 
	C48.880104,350.076965 48.635445,350.101746 48.390785,350.126556 
z"/>
<path fill="#9AD7EF" opacity="1.000000" stroke="none" 
	d="
M69.531960,26.096600 
	C69.994987,26.171089 69.991241,26.549019 69.990295,26.737820 
	C62.552479,27.037863 55.115612,27.149101 47.276733,27.146198 
	C49.491547,26.676170 52.101246,26.096840 54.726746,26.013105 
	C59.502522,25.860798 64.287689,26.002874 69.531960,26.096600 
z"/>
<path fill="#D3F9FF" opacity="1.000000" stroke="none" 
	d="
M102.398491,25.789387 
	C101.151428,25.549658 100.323112,25.316380 99.171295,25.028259 
	C99.513580,24.645988 100.181450,24.029726 100.844833,24.034523 
	C110.531403,24.104607 120.217377,24.257652 130.198685,24.756849 
	C121.268333,25.347136 112.042786,25.571486 102.398491,25.789387 
z"/>
<path fill="#D5EEF7" opacity="1.000000" stroke="none" 
	d="
M76.497696,88.098541 
	C76.963242,88.141266 76.990219,88.601410 77.010414,88.830978 
	C68.352043,89.317986 59.673481,89.575439 50.559746,89.580673 
	C50.124577,89.328461 49.891426,88.893578 49.891426,88.893578 
	C53.190205,88.590187 56.484612,88.103722 59.788746,88.024872 
	C65.199883,87.895752 70.617355,88.031677 76.497696,88.098541 
z"/>
<path fill="#CCF2FF" opacity="1.000000" stroke="none" 
	d="
M15.127199,355.408386 
	C25.203321,354.864258 35.483635,354.712433 46.607887,354.681946 
	C47.723850,354.858948 47.995869,354.914551 48.267891,354.970184 
	C47.419868,355.313171 46.571968,355.953522 45.723808,355.953857 
	C35.593029,355.957886 25.462204,355.866821 15.127199,355.408386 
z"/>
<path fill="#9FDAEE" opacity="1.000000" stroke="none" 
	d="
M128.445129,196.168442 
	C118.546425,196.600861 108.188538,196.978882 97.394821,197.022217 
	C96.973328,196.510696 96.987671,196.333847 97.002014,196.156982 
	C107.329987,196.142670 117.657967,196.128342 128.445129,196.168442 
z"/>
<path fill="#B0E6F7" opacity="1.000000" stroke="none" 
	d="
M157.016144,73.377319 
	C160.675690,76.171539 164.450790,79.285667 168.085083,82.743858 
	C164.340103,79.957695 160.735901,76.827461 157.016144,73.377319 
z"/>
<path fill="#B3E6F7" opacity="1.000000" stroke="none" 
	d="
M168.615265,172.015518 
	C165.827820,175.290207 162.724548,178.681747 159.263763,182.021454 
	C162.037323,178.690552 165.168365,175.411469 168.615265,172.015518 
z"/>
<path fill="#8AB1C6" opacity="1.000000" stroke="none" 
	d="
M111.439636,88.316315 
	C110.997864,88.272308 110.993874,88.320145 111.007614,88.338524 
	C115.009888,87.888756 118.998421,87.420609 123.439545,86.913963 
	C123.892128,86.875465 124.049896,87.341454 124.063309,87.587082 
	C120.011627,88.008575 115.946518,88.184448 111.439636,88.316315 
z"/>
<path fill="#7EA8BD" opacity="1.000000" stroke="none" 
	d="
M49.472576,88.912476 
	C49.891426,88.893578 50.124577,89.328461 50.126915,89.575172 
	C48.006123,91.052635 45.882988,92.283379 43.500282,93.717987 
	C42.122993,88.699364 45.384903,88.578384 49.472576,88.912476 
z"/>
<path fill="#87CBE6" opacity="1.000000" stroke="none" 
	d="
M14.049004,347.255432 
	C14.486377,349.318634 14.772328,351.776062 15.004719,354.659302 
	C11.200364,353.088318 13.059192,350.296692 14.049004,347.255432 
z"/>
<path fill="#B0E6F7" opacity="1.000000" stroke="none" 
	d="
M152.114670,69.551903 
	C153.787369,70.282784 155.435562,71.357178 157.018600,72.770874 
	C155.332352,72.038582 153.711258,70.967003 152.114670,69.551903 
z"/>
<path fill="#B9E9F8" opacity="1.000000" stroke="none" 
	d="
M211.326202,85.741608 
	C210.144623,83.949913 209.178452,81.782013 208.100006,79.268845 
	C209.172348,81.070862 210.356964,83.218132 211.326202,85.741608 
z"/>
<path fill="#87CBE6" opacity="1.000000" stroke="none" 
	d="
M48.582645,354.822449 
	C47.995869,354.914551 47.723850,354.858948 47.054317,354.676971 
	C47.146667,353.246399 47.636528,351.942200 48.258583,350.382263 
	C48.635445,350.101746 48.880104,350.076965 49.492966,350.030884 
	C49.539913,351.564636 49.218655,353.119690 48.582645,354.822449 
z"/>
<path fill="#88ACBD" opacity="1.000000" stroke="none" 
	d="
M207.501923,356.083710 
	C207.094208,356.112335 206.861115,355.690155 206.852173,355.449188 
	C207.844650,354.256287 208.846085,353.304352 209.883377,351.954956 
	C210.678284,352.737457 211.437317,353.917419 212.581818,355.696594 
	C210.627991,355.846527 209.268814,355.950806 207.501923,356.083710 
z"/>
<path fill="#B3E6F7" opacity="1.000000" stroke="none" 
	d="
M158.642334,181.941910 
	C157.947571,182.914734 156.913635,183.930130 155.548904,185.016525 
	C156.246460,184.053177 157.274826,183.018829 158.642334,181.941910 
z"/>
<path fill="#B3E6F7" opacity="1.000000" stroke="none" 
	d="
M172.577118,168.227310 
	C171.771500,169.435974 170.659821,170.790726 169.218658,172.042389 
	C170.016464,170.750671 171.143784,169.562042 172.577118,168.227310 
z"/>
<path fill="#B9E9F8" opacity="1.000000" stroke="none" 
	d="
M207.684967,77.579025 
	C206.974747,76.771187 206.183487,75.665421 205.224823,74.308777 
	C205.906281,75.132286 206.755112,76.206680 207.684967,77.579025 
z"/>
<path fill="#B6E7F6" opacity="1.000000" stroke="none" 
	d="
M204.805115,72.557159 
	C204.120407,72.086594 203.489609,71.300453 202.952301,70.211617 
	C203.650208,70.686485 204.254623,71.464035 204.805115,72.557159 
z"/>
<path fill="#2CABE1" opacity="1.000000" stroke="none" 
	d="
M183.772079,125.060349 
	C183.897995,125.365723 184.068375,125.624283 183.935791,125.704956 
	C183.015747,125.532326 182.228287,125.279015 181.107452,124.951958 
	C181.731445,124.837128 182.688797,124.796043 183.772079,125.060349 
z"/>
<path fill="#88ACBD" opacity="1.000000" stroke="none" 
	d="
M180.915985,356.144958 
	C181.048706,356.298370 181.204056,356.504120 181.185349,356.631836 
	C180.718338,356.764252 180.270020,356.769012 179.485748,356.772644 
	C179.694290,356.511505 180.238785,356.251495 180.915985,356.144958 
z"/>
<path fill="#92D4EC" opacity="1.000000" stroke="none" 
	d="
M133.160034,25.740339 
	C132.465012,25.952158 131.540253,25.800814 130.535553,25.351974 
	C131.280518,25.162045 132.105392,25.269611 133.160034,25.740339 
z"/>
<path fill="#B6E7F6" opacity="1.000000" stroke="none" 
	d="
M186.933838,51.794628 
	C186.502121,51.499817 185.943130,50.923450 185.172455,50.133080 
	C185.576019,50.450409 186.191299,50.981739 186.933838,51.794628 
z"/>
<path fill="#B6E7F6" opacity="1.000000" stroke="none" 
	d="
M184.975571,49.770756 
	C184.544815,49.577183 184.007919,49.132698 183.351685,48.453697 
	C183.778061,48.652737 184.323730,49.086292 184.975571,49.770756 
z"/>
<path fill="#B3E8FA" opacity="1.000000" stroke="none" 
	d="
M210.278168,173.879303 
	C210.244919,173.685135 210.451691,173.407043 210.726685,172.996674 
	C210.702652,173.174728 210.610413,173.485062 210.278168,173.879303 
z"/>
<path fill="#89CFE8" opacity="1.000000" stroke="none" 
	d="
M96.741142,196.134003 
	C96.987671,196.333847 96.973328,196.510696 96.922653,196.952850 
	C96.722450,197.185989 96.558578,197.153854 96.157822,197.040375 
	C96.107391,196.676361 96.293831,196.393692 96.741142,196.134003 
z"/>
<path fill="#B3E8FA" opacity="1.000000" stroke="none" 
	d="
M219.619751,154.339386 
	C220.045868,154.695114 220.021362,154.968475 219.985870,155.653320 
	C219.616028,156.055557 219.331665,155.905319 219.037933,155.380829 
	C219.025742,154.850739 219.097427,154.553879 219.619751,154.339386 
z"/>
<path fill="#B0E6F7" opacity="1.000000" stroke="none" 
	d="
M167.983765,83.268906 
	C168.188049,83.192482 168.491425,83.381096 168.913513,83.828209 
	C168.715775,83.902451 168.399323,83.718201 167.983765,83.268906 
z"/>
<path fill="#86CEEA" opacity="1.000000" stroke="none" 
	d="
M97.925941,59.711723 
	C97.372482,59.911381 96.560944,59.984684 95.343941,60.008408 
	C95.848267,59.834347 96.758072,59.709862 97.925941,59.711723 
z"/>
<path fill="#86CEEA" opacity="1.000000" stroke="none" 
	d="
M128.789917,59.889580 
	C128.489319,60.026386 128.009995,60.014465 127.178108,59.922295 
	C127.420761,59.808311 128.015976,59.774582 128.789917,59.889580 
z"/>
</svg>